<svg xmlns="http://www.w3.org/2000/svg" width="19.506" height="19.506" viewBox="0 0 19.506 19.506"><defs><style>.a{fill:#006cb4;}</style></defs><path class="a" d="M169.855,154.668l-5.76,5.76,5.76,5.76a1.112,1.112,0,0,1,0,1.574l-2.093,2.093a1.112,1.112,0,0,1-1.574,0l-5.76-5.76-5.76,5.76a1.112,1.112,0,0,1-1.574,0L151,167.762a1.112,1.112,0,0,1,0-1.574l5.76-5.76-5.76-5.76a1.112,1.112,0,0,1,0-1.574L153.094,151a1.112,1.112,0,0,1,1.574,0l5.76,5.76,5.76-5.76a1.112,1.112,0,0,1,1.574,0l2.093,2.093a1.112,1.112,0,0,1,0,1.574Z" transform="translate(-150.675 -150.675)"/></svg>