<!-- Generated by IcoMoon.io -->
<svg version="1.1" xmlns="http://www.w3.org/2000/svg" width="32" height="32" viewBox="0 0 32 32">
<title>icon-sidebar-impostazioni</title>
<path fill="#006cb4" d="M28.363 14.165h-1.629c-0.125-0.744-0.303-1.402-0.537-2.033l0.025 0.076 1.401-0.81c0.29-0.17 0.481-0.479 0.481-0.834 0-0.177-0.048-0.343-0.131-0.486l0.002 0.005-0.866-1.507c-0.17-0.29-0.479-0.481-0.834-0.481-0.177 0-0.343 0.048-0.486 0.131l0.005-0.002-1.37 0.791c-0.26-0.32-0.518-0.606-0.791-0.879v0q-0.31-0.31-0.639-0.592l0.776-1.345c0.081-0.138 0.129-0.304 0.129-0.481 0-0.354-0.191-0.664-0.476-0.831l-0.005-0.002-1.507-0.866c-0.138-0.081-0.304-0.129-0.481-0.129-0.354 0-0.664 0.191-0.831 0.476l-0.002 0.005-0.743 1.286c-0.573-0.233-1.25-0.433-1.952-0.566l-0.069-0.011v-1.443c0-0.532-0.431-0.963-0.963-0.963v0h-1.739c-0.532 0-0.963 0.431-0.963 0.963v0 1.368c-0.793 0.117-1.501 0.298-2.179 0.544l0.077-0.024-0.662-1.147c-0.17-0.29-0.479-0.481-0.834-0.481-0.177 0-0.343 0.048-0.486 0.131l0.005-0.002-1.507 0.866c-0.29 0.17-0.481 0.479-0.481 0.833 0 0.177 0.048 0.343 0.131 0.486l-0.002-0.005 0.631 1.092c-0.345 0.276-0.653 0.552-0.945 0.844l-0 0q-0.339 0.339-0.646 0.703l-1.065-0.615c-0.138-0.081-0.304-0.129-0.481-0.129-0.354 0-0.664 0.191-0.831 0.476l-0.002 0.005-0.866 1.507c-0.081 0.138-0.129 0.304-0.129 0.481 0 0.354 0.191 0.664 0.476 0.831l0.005 0.002 1.030 0.595c-0.248 0.618-0.454 1.346-0.584 2.099l-0.009 0.065h-1.178c-0.532 0-0.963 0.431-0.963 0.963v0 1.74c0 0.532 0.431 0.963 0.963 0.963v0h1.178c0.139 0.819 0.345 1.546 0.619 2.239l-0.026-0.075-1.030 0.595c-0.29 0.17-0.481 0.479-0.481 0.834 0 0.177 0.048 0.343 0.131 0.486l-0.002-0.005 0.866 1.507c0.17 0.29 0.479 0.481 0.833 0.481 0.177 0 0.343-0.048 0.486-0.131l-0.005 0.002 1.065-0.615q0.306 0.364 0.646 0.703c0.292 0.292 0.6 0.568 0.923 0.827l0.022 0.017-0.631 1.092c-0.081 0.138-0.129 0.304-0.129 0.481 0 0.354 0.191 0.664 0.476 0.831l0.005 0.002 1.507 0.866c0.138 0.081 0.304 0.129 0.481 0.129 0.354 0 0.664-0.191 0.831-0.476l0.002-0.005 0.662-1.147c0.601 0.222 1.31 0.403 2.042 0.512l0.060 0.007v1.377c0 0.532 0.431 0.963 0.963 0.963v0h1.739c0.532 0 0.963-0.431 0.963-0.963v0-1.443c0.77-0.144 1.447-0.344 2.095-0.604l-0.074 0.026 0.743 1.286c0.17 0.29 0.479 0.481 0.834 0.481 0.177 0 0.343-0.048 0.486-0.131l-0.005 0.002 1.507-0.866c0.29-0.17 0.481-0.479 0.481-0.834 0-0.177-0.048-0.343-0.131-0.486l0.002 0.005-0.776-1.345q0.33-0.289 0.639-0.592c0.273-0.273 0.531-0.559 0.775-0.858l0.016-0.021 1.37 0.791c0.138 0.081 0.304 0.129 0.481 0.129 0.354 0 0.664-0.191 0.831-0.476l0.002-0.005 0.866-1.507c0.081-0.138 0.129-0.304 0.129-0.481 0-0.354-0.191-0.664-0.476-0.831l-0.005-0.002-1.401-0.808c0.21-0.555 0.388-1.213 0.503-1.892l0.009-0.065h1.629c0.532 0 0.963-0.431 0.963-0.963v0-1.74c0-0.002 0-0.005 0-0.007 0-0.532-0.431-0.963-0.963-0.963 0 0-0 0-0 0v0zM15.768 21.972c-3.3 0-5.976-2.676-5.976-5.976s2.676-5.976 5.976-5.976c3.3 0 5.976 2.676 5.976 5.976v0c-0.003 3.299-2.676 5.972-5.974 5.976h-0z"></path>
</svg>
