<!-- Generated by IcoMoon.io -->
<svg version="1.1" xmlns="http://www.w3.org/2000/svg" width="32" height="32" viewBox="0 0 32 32">
<title>icon-sidebar-ambiente</title>
<path fill="#006cb4" d="M18.538 9.476l-7.596 14.77h15.192l-7.596-14.77zM18.538 5.692c0.214 0 0.429 0.11 0.542 0.331l9.975 19.396c0.209 0.406-0.086 0.889-0.542 0.889h-19.95c-0.456 0-0.751-0.483-0.542-0.889l9.975-19.396c0.113-0.221 0.328-0.331 0.542-0.331z"></path>
<path fill="#006cb4" d="M10.839 15.85l-5.098 8.397h10.196l-5.098-8.397zM10.839 12.833c0.34 0 0.68 0.165 0.881 0.496l6.93 11.414c0.417 0.687-0.078 1.566-0.881 1.566h-13.86c-0.804 0-1.298-0.879-0.881-1.566l6.93-11.414c0.201-0.331 0.541-0.496 0.881-0.496z"></path>
</svg>
