<svg xmlns="http://www.w3.org/2000/svg" width="32.307" height="43.076" viewBox="0 0 32.307 43.076">
  <g id="Raggruppa_20728" data-name="Raggruppa 20728" transform="translate(-729.75 -1355.924)">
    <g id="Raggruppa_11189" data-name="Raggruppa 11189" transform="translate(386 126)">
      <g id="Raggruppa_11187" data-name="Raggruppa 11187" transform="translate(342.25 1229.924)">
        <path id="Tracciato_60271" data-name="Tracciato 60271" d="M6.884,0H21.692V2.692H6.884A2.693,2.693,0,0,0,4.192,5.384V37.691a2.693,2.693,0,0,0,2.692,2.692H28.422a2.693,2.693,0,0,0,2.692-2.692V12.115h2.692V37.691a5.386,5.386,0,0,1-5.384,5.384H6.884A5.386,5.386,0,0,1,1.5,37.691V5.384A5.386,5.386,0,0,1,6.884,0Z" fill="#0060c1"/>
        <path id="Tracciato_60272" data-name="Tracciato 60272" d="M7.125,8.077V0L19.24,12.115H11.163A4.04,4.04,0,0,1,7.125,8.077Z" transform="translate(14.567)" fill="#0060c1"/>
      </g>
    </g>
    <g id="Raggruppa_20729" data-name="Raggruppa 20729" transform="translate(618.779 1256.727)">
      <path id="Tracciato_61057" data-name="Tracciato 61057" d="M149.922,115.179a1.316,1.316,0,1,1-1.316-1.316A1.316,1.316,0,0,1,149.922,115.179Z" transform="translate(-21.482 0)" fill="#b8191a"/>
      <path id="Tracciato_61058" data-name="Tracciato 61058" d="M149.922,176.33a1.316,1.316,0,1,1-1.316-1.316A1.316,1.316,0,0,1,149.922,176.33Z" transform="translate(-21.482 -42.963)" fill="#b8191a" opacity="0.6"/>
      <path id="Tracciato_61059" data-name="Tracciato 61059" d="M118.03,144.438a1.316,1.316,0,1,1-1.316,1.316A1.316,1.316,0,0,1,118.03,144.438Z" transform="translate(0 -21.481)" fill="#b8191a" opacity="0.9"/>
      <path id="Tracciato_61060" data-name="Tracciato 61060" d="M179.181,144.438a1.316,1.316,0,1,1-1.316,1.316A1.316,1.316,0,0,1,179.181,144.438Z" transform="translate(-42.963 -21.481)" fill="#b8191a" opacity="0.3"/>
      <path id="Tracciato_61061" data-name="Tracciato 61061" d="M122.784,129.326a1.316,1.316,0,1,1-1.8.482A1.316,1.316,0,0,1,122.784,129.326Z" transform="translate(-2.877 -10.74)" fill="#b8191a"/>
      <path id="Tracciato_61062" data-name="Tracciato 61062" d="M175.743,159.9a1.316,1.316,0,1,1-1.8.482A1.316,1.316,0,0,1,175.743,159.9Z" transform="translate(-40.085 -32.221)" fill="#b8191a" opacity="0.4"/>
      <path id="Tracciato_61063" data-name="Tracciato 61063" d="M132.178,171.575a1.316,1.316,0,1,1,.482,1.8A1.316,1.316,0,0,1,132.178,171.575Z" transform="translate(-10.74 -40.084)" fill="#b8191a" opacity="0.7"/>
      <path id="Tracciato_61064" data-name="Tracciato 61064" d="M162.753,118.616a1.316,1.316,0,1,1,.482,1.8A1.316,1.316,0,0,1,162.753,118.616Z" transform="translate(-32.222 -2.877)" fill="#b8191a" opacity="0.1"/>
      <path id="Tracciato_61065" data-name="Tracciato 61065" d="M121.468,159.9a1.316,1.316,0,1,1-.482,1.8A1.316,1.316,0,0,1,121.468,159.9Z" transform="translate(-2.877 -32.221)" fill="#b8191a" opacity="0.8"/>
      <path id="Tracciato_61066" data-name="Tracciato 61066" d="M174.426,129.326a1.316,1.316,0,1,1-.482,1.8A1.316,1.316,0,0,1,174.426,129.326Z" transform="translate(-40.085 -10.74)" fill="#b8191a" opacity="0.2"/>
      <path id="Tracciato_61067" data-name="Tracciato 61067" d="M162.753,172.891a1.316,1.316,0,1,1,1.8.482A1.316,1.316,0,0,1,162.753,172.891Z" transform="translate(-32.222 -40.084)" fill="#b8191a" opacity="0.5"/>
      <path id="Tracciato_61068" data-name="Tracciato 61068" d="M132.178,119.933a1.316,1.316,0,1,1,1.8.482A1.316,1.316,0,0,1,132.178,119.933Z" transform="translate(-10.74 -2.877)" fill="#b8191a"/>
    </g>
  </g>
</svg>
