<svg xmlns="http://www.w3.org/2000/svg" width="20.397" height="20.367" viewBox="0 0 20.397 20.367"><defs><style>.a{fill:#016cb4;}.a,.b{stroke:#016cb4;stroke-width:0.3px;}.b{fill:#fff;}</style></defs><g transform="translate(-115.205 -339.133)"><g transform="translate(115.368 339.283)"><path class="a" d="M135.187,340.6a.424.424,0,0,0-.164-.033.43.43,0,0,0-.3.126l-3.641,3.64a.211.211,0,0,1-.149.062l-.034,0a.21.21,0,0,1-.154-.113l-.25-.5a.211.211,0,0,1,.04-.243l3.515-3.515a.43.43,0,0,0-.3-.734h-1.921a.432.432,0,0,0-.213.057l-4.466,2.552-.019.012a.229.229,0,0,0-.021.021l-.037.035-.035.029-.035.03a.162.162,0,0,1-.016.02l-2.752,3.853a.21.21,0,0,1-.154.088h-.017a.211.211,0,0,1-.149-.062l-.746-.746a.43.43,0,0,0-.608.608l.273.273a.211.211,0,0,1-.094.352l-.091.022a1.108,1.108,0,0,0-.141.039,12.169,12.169,0,0,0-6.977,6.977,2.122,2.122,0,0,0,.079,1.768,1.423,1.423,0,0,0,.975.738,1.54,1.54,0,0,0,.3.029,2.028,2.028,0,0,0,1.806-1.318,8.775,8.775,0,0,1,5.034-5.033,2.033,2.033,0,0,0,1.3-1.614.21.21,0,0,1,.209-.186h.312a.21.21,0,0,1,.2.14,1.7,1.7,0,0,0,.872.969.211.211,0,0,1,.109.256l-.129.386a.209.209,0,0,1-.159.14,2.056,2.056,0,0,0-1.49,1.286,8.776,8.776,0,0,1-5.035,5.033,1.959,1.959,0,0,0-1.287,2.108,1.422,1.422,0,0,0,.738.973,1.954,1.954,0,0,0,.946.233,2.285,2.285,0,0,0,.822-.154,12.167,12.167,0,0,0,6.976-6.976,2.269,2.269,0,0,0,.093-.345.21.21,0,0,1,.146-.157.206.206,0,0,1,.059-.009.211.211,0,0,1,.149.062l.412.412a.43.43,0,1,0,.608-.608l-.746-.746a.21.21,0,0,1,.026-.319l3.867-2.763a.438.438,0,0,0,.124-.136l2.561-4.482a.438.438,0,0,0,.057-.214v-1.921A.428.428,0,0,0,135.187,340.6Zm-9.453,6.231a.21.21,0,0,1-.2.14h-.612a.211.211,0,0,1-.171-.333l2.854-4a.205.205,0,0,1,.067-.06l4.213-2.407a.209.209,0,0,1,.1-.028h.205a.21.21,0,0,1,.149.359l-2.749,2.748a.429.429,0,0,0-.081.5l.482.964a.21.21,0,0,1-.094.282l-1.476.739a.721.721,0,0,1-.567.041,3.123,3.123,0,0,0-.521-.086A1.712,1.712,0,0,0,125.734,346.827Zm.754.57a.851.851,0,1,1,.851.851A.852.852,0,0,1,126.488,347.4Zm8.1-4.652a.211.211,0,0,1-.028.1l-2.407,4.212a.212.212,0,0,1-.06.067l-4.129,2.949a.211.211,0,0,1-.122.039.209.209,0,0,1-.143-.056,1.533,1.533,0,0,0-.166-.136.21.21,0,0,1-.082-.241l.168-.5a.209.209,0,0,1,.146-.136,1.693,1.693,0,0,0,1.121-2.357.21.21,0,0,1,.1-.276l2.385-1.192a.423.423,0,0,0,.112-.081l2.749-2.749a.21.21,0,0,1,.149-.062.207.207,0,0,1,.08.016.211.211,0,0,1,.13.194Z" transform="translate(-115.368 -339.283)"/></g><path class="b" d="M132.148,365.319a11.3,11.3,0,0,1-6.483,6.483,1.453,1.453,0,0,1-.516.1,1.079,1.079,0,0,1-.525-.127.58.58,0,0,1-.312-.385,1.091,1.091,0,0,1,.755-1.142,9.64,9.64,0,0,0,5.525-5.525,1.145,1.145,0,0,1,1-.77.678.678,0,0,1,.147.015.592.592,0,0,1,.386.31A1.252,1.252,0,0,1,132.148,365.319Z" transform="translate(-4.854 -13.409)"/><path class="b" d="M124.43,358.215a9.631,9.631,0,0,0-5.525,5.524,1.15,1.15,0,0,1-1,.769.759.759,0,0,1-.133-.011l-.011,0a.6.6,0,0,1-.384-.31,1.253,1.253,0,0,1-.029-1.042,11.307,11.307,0,0,1,6.483-6.483,1.424,1.424,0,0,1,.515-.1,1.088,1.088,0,0,1,.525.127.6.6,0,0,1,.312.387A1.087,1.087,0,0,1,124.43,358.215Z" transform="translate(-1.023 -9.391)"/></g></svg>