<!-- Generated by IcoMoon.io -->
<svg version="1.1" xmlns="http://www.w3.org/2000/svg" width="32" height="32" viewBox="0 0 32 32">
<title>icon-sidebar-attivita</title>
<path fill="#006cb4" stroke="#006cb4" stroke-linejoin="miter" stroke-linecap="butt" stroke-miterlimit="4" stroke-width="0.8" d="M8.759 4.234h-1.809c-2 0.001-3.62 1.622-3.62 3.622 0 0.002 0 0.003 0 0.005v-0 19.001c0.001 1.999 1.621 3.619 3.62 3.62h18.101c1.999-0.001 3.619-1.621 3.62-3.62v-19.001c-0.001-1.999-1.621-3.619-3.62-3.62h-1.811v1.804h1.809c0 0 0 0 0 0 1 0 1.811 0.811 1.811 1.811 0 0.002 0 0.004 0 0.006v-0 19.001c-0.004 0.996-0.813 1.803-1.809 1.804h-18.101c-1-0.001-1.809-0.811-1.809-1.811 0 0 0 0 0 0v0-18.994c0-0.002 0-0.004 0-0.006 0-1 0.81-1.81 1.809-1.811h1.809z"></path>
<path fill="#006cb4" stroke="#006cb4" stroke-linejoin="miter" stroke-linecap="butt" stroke-miterlimit="4" stroke-width="0.8" d="M18.716 3.328v0c0.5 0 0.905 0.405 0.905 0.905v1.811c0 0.5-0.405 0.905-0.905 0.905h-5.436c-0.5 0-0.905-0.405-0.905-0.905v-1.811c0-0.5 0.405-0.905 0.905-0.905h5.436zM13.28 1.519c-1.497 0.003-2.71 1.217-2.71 2.715v1.811c0.001 1.498 1.213 2.711 2.71 2.715h5.436c1.499-0.001 2.714-1.216 2.715-2.715v-1.811c-0.001-1.499-1.216-2.714-2.715-2.715h-0zM21.165 14.453l0 0c-0.164-0.164-0.391-0.265-0.641-0.265s-0.477 0.101-0.641 0.265l-4.788 4.794-2.074-2.077c-0.162-0.149-0.378-0.24-0.615-0.24-0.502 0-0.908 0.407-0.908 0.908 0 0.237 0.091 0.453 0.239 0.614l2.718 2.715c0.164 0.164 0.391 0.265 0.641 0.265s0.477-0.101 0.641-0.265l5.425-5.433c0.164-0.164 0.265-0.391 0.265-0.641s-0.101-0.477-0.265-0.641z"></path>
</svg>
