<svg xmlns="http://www.w3.org/2000/svg" width="32.307" height="43.076" viewBox="0 0 32.307 43.076">
  <g id="Raggruppa_11188" data-name="Raggruppa 11188" transform="translate(-343.75 -1229.924)">
    <g id="Raggruppa_11570" data-name="Raggruppa 11570">
      <g id="Raggruppa_11187" data-name="Raggruppa 11187" transform="translate(342.25 1229.924)">
        <path id="Tracciato_60271" data-name="Tracciato 60271" d="M6.884,0H21.692V2.692H6.884A2.693,2.693,0,0,0,4.192,5.384V37.691a2.693,2.693,0,0,0,2.692,2.692H28.422a2.693,2.693,0,0,0,2.692-2.692V12.115h2.692V37.691a5.386,5.386,0,0,1-5.384,5.384H6.884A5.386,5.386,0,0,1,1.5,37.691V5.384A5.386,5.386,0,0,1,6.884,0Z" fill="#0060c1"/>
        <path id="Tracciato_60272" data-name="Tracciato 60272" d="M7.125,8.077V0L19.24,12.115H11.163A4.04,4.04,0,0,1,7.125,8.077Z" transform="translate(14.567)" fill="#0060c1"/>
      </g>
      <path id="Tracciato_60273" data-name="Tracciato 60273" d="M20.767,2.6a.771.771,0,0,1,0,1.09L19.156,5.3l-3.09-3.09L17.677.6a.772.772,0,0,1,1.094,0l2,2Zm-2.7,3.794L14.975,3.3,4.45,13.831a.754.754,0,0,0-.185.3L3.02,17.862a.385.385,0,0,0,.245.488.378.378,0,0,0,.243,0l3.728-1.244a.754.754,0,0,0,.3-.185L18.065,6.4Z" transform="translate(348 1246.366)" fill="#b8191a"/>
    </g>
  </g>
</svg>
