<svg xmlns="http://www.w3.org/2000/svg" width="32.307" height="43.076" viewBox="0 0 32.307 43.076">
  <g id="Raggruppa_11754" data-name="Raggruppa 11754" transform="translate(-729.75 -1355.924)">
    <g id="Raggruppa_11189" data-name="Raggruppa 11189" transform="translate(386 126)">
      <g id="Raggruppa_11187" data-name="Raggruppa 11187" transform="translate(342.25 1229.924)">
        <path id="Tracciato_60271" data-name="Tracciato 60271" d="M6.884,0H21.692V2.692H6.884A2.693,2.693,0,0,0,4.192,5.384V37.691a2.693,2.693,0,0,0,2.692,2.692H28.422a2.693,2.693,0,0,0,2.692-2.692V12.115h2.692V37.691a5.386,5.386,0,0,1-5.384,5.384H6.884A5.386,5.386,0,0,1,1.5,37.691V5.384A5.386,5.386,0,0,1,6.884,0Z" fill="#0060c1"/>
        <path id="Tracciato_60272" data-name="Tracciato 60272" d="M7.125,8.077V0L19.24,12.115H11.163A4.04,4.04,0,0,1,7.125,8.077Z" transform="translate(14.567)" fill="#0060c1"/>
      </g>
    </g>
    <path id="Tracciato_60274" data-name="Tracciato 60274" d="M12.182,3A1.148,1.148,0,0,1,13.33,4.148v6.887h6.887a1.148,1.148,0,0,1,0,2.3H13.33v6.887a1.148,1.148,0,1,1-2.3,0V13.33H4.148a1.148,1.148,0,0,1,0-2.3h6.887V4.148A1.148,1.148,0,0,1,12.182,3Z" transform="translate(733.818 1369.818)" fill="#b8191a"/>
  </g>
</svg>
