<svg xmlns="http://www.w3.org/2000/svg" width="20.568" height="20.568" viewBox="0 0 20.568 20.568"><defs><style>.a{fill:#fff;}</style></defs><path class="a" d="M12.284,2A10.284,10.284,0,1,0,22.568,12.284,10.288,10.288,0,0,0,12.284,2Zm1.028,17.483H11.255V17.426h2.057Zm2.129-7.97-.926.946a3.5,3.5,0,0,0-1.2,2.91H11.255v-.514a4.139,4.139,0,0,1,1.2-2.91l1.275-1.3a2.011,2.011,0,0,0,.607-1.45,2.057,2.057,0,1,0-4.114,0H8.17a4.114,4.114,0,1,1,8.227,0A3.272,3.272,0,0,1,15.441,11.513Z" transform="translate(-2 -2)"/></svg>