<!-- Generated by IcoMoon.io -->
<svg version="1.1" xmlns="http://www.w3.org/2000/svg" width="32" height="32" viewBox="0 0 32 32">
<title>icon-sidebar-espandi</title>
<path fill="#006cb4" opacity="0.7" stroke="rgba(0, 0, 0, 0)" stroke-linejoin="miter" stroke-linecap="butt" stroke-miterlimit="10" stroke-width="0.7111" d="M16 2.889c-7.241 0-13.111 5.87-13.111 13.111s5.87 13.111 13.111 13.111c7.241 0 13.111-5.87 13.111-13.111v0c0-0.004 0-0.008 0-0.012 0-7.234-5.865-13.099-13.099-13.099-0.004 0-0.008 0-0.012 0h0.001zM16 26.489c-5.793 0-10.489-4.696-10.489-10.489s4.696-10.489 10.489-10.489c5.793 0 10.489 4.696 10.489 10.489v0c-0.008 5.789-4.699 10.481-10.488 10.489h-0.001z"></path>
<path fill="#4b8fd3" d="M19.065 19.529l-6.756-6.989-1.521 8.74z"></path>
<path fill="#4b8fd3" d="M19.608 18.97l-6.756-6.989 8.787-1.223z"></path>
</svg>
