<!-- Generated by IcoMoon.io -->
<svg version="1.1" xmlns="http://www.w3.org/2000/svg" width="32" height="32" viewBox="0 0 32 32">
<title>icon-sidebar-forestale</title>
<path fill="#006cb4" d="M16.002 30.924c-0.477-0.001-0.864-0.387-0.864-0.864v-22.486c0-0.477 0.387-0.864 0.864-0.864s0.864 0.387 0.864 0.864v22.485c0 0 0 0 0 0 0 0.478-0.387 0.865-0.864 0.866h-0z"></path>
<path fill="#006cb4" d="M16.002 14.043v0c-0.995-0.027-1.917-0.316-2.707-0.8l0.024 0.014c-0.861-0.493-1.561-1.176-2.060-1.995l-0.014-0.025c-0.331-0.549-0.529-1.21-0.536-1.917v-0.002c0-0.349 0.052-0.686 0.146-1.004l-0.006 0.025c0.277-0.796 0.617-1.484 1.030-2.121l-0.023 0.038c0.393-0.652 0.895-1.407 1.497-2.247 0.934-1.308 1.807-2.403 1.972-2.61v0c0.16-0.197 0.402-0.323 0.674-0.323s0.514 0.125 0.672 0.321l0.001 0.002 0.022 0.028c1.141 1.409 2.277 2.986 3.325 4.625l0.126 0.211c0.39 0.599 0.731 1.287 0.986 2.015l0.021 0.068c0.088 0.293 0.14 0.63 0.14 0.979v0c-0.006 0.709-0.205 1.371-0.547 1.936l0.010-0.017c-0.342 0.575-0.767 1.061-1.265 1.461l-0.011 0.008c-0.477 0.388-1.026 0.715-1.619 0.955l-0.043 0.015c-0.537 0.22-1.16 0.351-1.812 0.359l-0.003 0zM16.002 3.339c-0.178 0.231-0.354 0.463-0.525 0.699-0.617 0.827-1.491 2.040-2.142 3.119-0.315 0.479-0.593 1.030-0.807 1.611l-0.018 0.056c-0.045 0.149-0.071 0.32-0.071 0.497 0 0.001 0 0.001 0 0.002v-0c0.008 0.391 0.121 0.755 0.312 1.065l-0.005-0.009c0.233 0.387 0.521 0.715 0.859 0.983l0.007 0.006c0.646 0.546 1.474 0.896 2.381 0.949l0.011 0.001h0.013c0.67-0.031 1.287-0.232 1.816-0.56l-0.016 0.009c0.598-0.339 1.086-0.808 1.437-1.371l0.010-0.017c0.185-0.302 0.298-0.665 0.306-1.054l0-0.002c-0.001-0.179-0.027-0.351-0.075-0.514l0.003 0.013c-0.191-0.541-0.419-1.008-0.693-1.442l0.017 0.029c-0.309-0.533-0.713-1.158-1.199-1.859-0.593-0.864-1.211-1.684-1.621-2.213z"></path>
<path fill="#006cb4" d="M11.6 22.801c-0.012 0-0.027 0-0.041 0-0.942 0-1.8-0.358-2.446-0.946l0.003 0.003c-0.53-0.537-0.999-1.137-1.393-1.787l-0.024-0.043c-0.408-0.645-0.862-1.432-1.344-2.34-0.788-1.481-1.399-2.789-1.462-2.938v0c-0.050-0.106-0.079-0.23-0.079-0.36 0-0.412 0.288-0.757 0.673-0.844l0.006-0.001c0.119-0.027 1.199-0.26 2.577-0.498 1.339-0.27 2.904-0.45 4.502-0.501l0.045-0.001c0.025-0 0.055-0.001 0.084-0.001 0.355 0 0.703 0.030 1.042 0.087l-0.037-0.005c0.58 0.107 1.092 0.344 1.523 0.679l-0.008-0.006c0.416 0.325 0.761 0.718 1.023 1.166l0.010 0.019c0.482 0.834 0.767 1.835 0.767 2.902 0 0.021-0 0.043-0 0.064l0-0.003c0 0.026 0.001 0.056 0.001 0.087 0 0.817-0.187 1.59-0.519 2.279l0.014-0.031c-0.983 1.749-2.792 2.932-4.884 3.018l-0.012 0zM6.935 15.016c0.127 0.26 0.257 0.522 0.386 0.778 0.464 0.92 1.161 2.238 1.838 3.307 0.333 0.561 0.703 1.046 1.122 1.485l-0.003-0.003c0.335 0.303 0.782 0.489 1.272 0.489 0.022 0 0.045-0 0.067-0.001l-0.003 0h0.013c0.733-0.029 1.406-0.26 1.972-0.638l-0.014 0.009c0.579-0.352 1.046-0.835 1.371-1.409l0.010-0.019c0.205-0.438 0.325-0.952 0.325-1.494 0-0.025-0-0.050-0.001-0.075l0 0.004c0-0.012 0-0.027 0-0.041 0-0.749-0.195-1.453-0.537-2.063l0.011 0.021c-0.277-0.528-0.771-0.911-1.359-1.033l-0.013-0.002c-0.208-0.034-0.447-0.054-0.691-0.054-0.025 0-0.050 0-0.075 0.001l0.004-0h-0.028c-1.346 0.049-2.621 0.188-3.866 0.412l0.164-0.025c-0.627 0.105-1.294 0.218-1.967 0.351z"></path>
<path fill="#006cb4" d="M20.405 22.741v0h-0.021c-2.104-0.087-3.913-1.27-4.881-2.989l-0.015-0.029c-0.321-0.659-0.508-1.434-0.508-2.253 0-0.031 0-0.061 0.001-0.092l-0 0.005c-0-0.018-0-0.038-0-0.059 0-1.067 0.285-2.068 0.782-2.931l-0.015 0.028c0.272-0.467 0.617-0.861 1.025-1.178l0.009-0.007c0.423-0.33 0.935-0.566 1.493-0.67l0.021-0.003c0.302-0.053 0.651-0.083 1.006-0.083 0.029 0 0.059 0 0.088 0.001l-0.004-0c1.644 0.053 3.209 0.233 4.731 0.534l-0.184-0.030c1.327 0.228 2.378 0.455 2.574 0.497v0c0.391 0.088 0.679 0.433 0.679 0.844 0 0.131-0.029 0.255-0.081 0.367l0.002-0.005-0.015 0.031c-0.973 2.094-1.905 3.814-2.928 5.473l0.13-0.227c-0.418 0.693-0.887 1.293-1.418 1.831l0.001-0.001c-0.645 0.588-1.507 0.948-2.453 0.948-0.007 0-0.013-0-0.020-0h0.001zM19.376 14.208c-0.020-0-0.043-0-0.067-0-0.247 0-0.49 0.020-0.726 0.057l0.026-0.003c-0.602 0.125-1.095 0.508-1.367 1.026l-0.005 0.011c-0.331 0.588-0.526 1.29-0.526 2.038 0 0.016 0 0.031 0 0.047l-0-0.002c-0 0.022-0.001 0.047-0.001 0.073 0 0.541 0.12 1.054 0.335 1.514l-0.009-0.022c0.691 1.172 1.912 1.968 3.324 2.057l0.012 0.001h0.013c0.019 0.001 0.041 0.001 0.063 0.001 0.49 0 0.937-0.186 1.274-0.491l-0.002 0.001c0.356-0.364 0.675-0.768 0.948-1.204l0.017-0.030c0.34-0.516 0.719-1.157 1.129-1.901 0.504-0.916 0.96-1.827 1.259-2.431-0.485-0.095-0.967-0.183-1.43-0.263-1.236-0.244-2.694-0.415-4.18-0.476l-0.059-0.002h-0.027z"></path>
<path fill="#006cb4" d="M14.967 18.783v0c-0 0-0 0-0.001 0-1.309 0-2.526-0.395-3.538-1.072l0.023 0.015c-0.482-0.312-0.896-0.675-1.253-1.089l-0.006-0.008c-0.118-0.147-0.19-0.335-0.19-0.541 0-0.478 0.387-0.865 0.865-0.865 0.272 0 0.515 0.126 0.674 0.322l0.001 0.002 0.008 0.008 0.031 0.035c0.032 0.035 0.085 0.092 0.158 0.164 0.199 0.19 0.416 0.364 0.648 0.518l0.017 0.011c0.719 0.484 1.604 0.772 2.556 0.772 0.003 0 0.007 0 0.010 0h-0.001c0.331-0.001 0.654-0.033 0.967-0.092l-0.033 0.005c0.046-0.009 0.099-0.014 0.153-0.014 0.001 0 0.002 0 0.003 0h-0c0.002-0 0.005-0 0.007-0 0.477 0 0.864 0.387 0.864 0.864 0 0.426-0.307 0.779-0.712 0.851l-0.005 0.001c-0.375 0.071-0.807 0.112-1.248 0.112h-0z"></path>
<path fill="#006cb4" d="M17.043 18.783v0c-0.44-0.001-0.869-0.043-1.286-0.122l0.044 0.007c-0.407-0.076-0.711-0.428-0.711-0.851 0-0.478 0.387-0.865 0.865-0.865 0.055 0 0.108 0.005 0.16 0.015l-0.005-0.001c0.279 0.054 0.601 0.086 0.931 0.087h0.001c0.003 0 0.007 0 0.011 0 0.929 0 1.794-0.274 2.518-0.747l-0.018 0.011c0.349-0.219 0.65-0.473 0.91-0.764l0.004-0.004c0.16-0.198 0.402-0.323 0.674-0.323 0.478 0 0.865 0.387 0.865 0.865 0 0.206-0.072 0.395-0.192 0.543l0.001-0.002c-0.363 0.422-0.777 0.784-1.237 1.083l-0.022 0.014c-0.988 0.661-2.203 1.055-3.51 1.055-0.001 0-0.002 0-0.002 0h0z"></path>
</svg>
