<!-- Generated by IcoMoon.io -->
<svg version="1.1" xmlns="http://www.w3.org/2000/svg" width="1024" height="1024" viewBox="0 0 1024 1024">
<title></title>
<g id="icomoon-ignore">
</g>
<path fill="#006cb4" d="M512 0c-282.77 0-512 229.23-512 512s229.23 512 512 512c282.77 0 512-229.23 512-512v0c0-282.77-229.23-512-512-512v0zM571.663 296.478l-155.859 149.474h376.983c0.036 0 0.078 0 0.121 0 27.296 0 49.423 22.127 49.423 49.423 0 0.042 0 0.085 0 0.127v-0.007 33.129c0 0.036 0 0.078 0 0.121 0 27.296-22.127 49.423-49.423 49.423-0.042 0-0.085 0-0.127 0h-376.976l155.859 149.474c9.419 9.043 15.271 21.739 15.271 35.802 0 13.663-5.524 26.035-14.459 35.006l0.002-0.002-22.709 22.498c-8.939 8.995-21.317 14.563-34.997 14.563s-26.058-5.568-34.994-14.56l-0.003-0.003-274.071-273.769c-8.995-8.939-14.563-21.317-14.563-34.997s5.568-26.058 14.56-34.994l274.074-274.074c8.939-8.995 21.317-14.563 34.997-14.563s26.058 5.568 34.994 14.56l0.003 0.003 22.709 22.498c8.893 8.998 14.386 21.373 14.386 35.031 0 14.060-5.822 26.761-15.186 35.823l-0.014 0.013z"></path>
</svg>
