<svg xmlns="http://www.w3.org/2000/svg" width="34" height="34" viewBox="0 0 34 34"><defs><style>.a{fill:#006cb4;}</style></defs><path class="a" d="M25,8A17,17,0,1,1,8,25,17,17,0,0,1,25,8Zm-1.981,9.844,5.175,4.963H15.677a1.641,1.641,0,0,0-1.645,1.645v1.1a1.641,1.641,0,0,0,1.645,1.645H28.194l-5.175,4.963a1.647,1.647,0,0,0-.027,2.351l.754.747a1.638,1.638,0,0,0,2.324,0l9.1-9.09a1.638,1.638,0,0,0,0-2.324l-9.1-9.1a1.638,1.638,0,0,0-2.324,0l-.754.747A1.655,1.655,0,0,0,23.019,17.844Z" transform="translate(-8 -8)"/></svg>