<svg xmlns="http://www.w3.org/2000/svg" width="32.307" height="43.076" viewBox="0 0 32.307 43.076">
  <g id="Raggruppa_11571" data-name="Raggruppa 11571" transform="translate(-729.75 -1355.924)">
    <g id="Raggruppa_11189" data-name="Raggruppa 11189" transform="translate(386 126)">
      <g id="Raggruppa_11187" data-name="Raggruppa 11187" transform="translate(342.25 1229.924)">
        <path id="Tracciato_60271" data-name="Tracciato 60271" d="M6.884,0H21.692V2.692H6.884A2.693,2.693,0,0,0,4.192,5.384V37.691a2.693,2.693,0,0,0,2.692,2.692H28.422a2.693,2.693,0,0,0,2.692-2.692V12.115h2.692V37.691a5.386,5.386,0,0,1-5.384,5.384H6.884A5.386,5.386,0,0,1,1.5,37.691V5.384A5.386,5.386,0,0,1,6.884,0Z" fill="#0060c1"/>
        <path id="Tracciato_60272" data-name="Tracciato 60272" d="M7.125,8.077V0L19.24,12.115H11.163A4.04,4.04,0,0,1,7.125,8.077Z" transform="translate(14.567)" fill="#0060c1"/>
      </g>
    </g>
    <path id="Tracciato_60361" data-name="Tracciato 60361" d="M12.736,47.649a.491.491,0,0,0-.591-.384,8.612,8.612,0,0,1-1.862.222,5.277,5.277,0,0,1-4.979-3.5h4.66a.492.492,0,0,0,.48-.384l.261-1.163a.492.492,0,0,0-.48-.6h-5.5a8.849,8.849,0,0,1,.006-1.732h6.009a.492.492,0,0,0,.481-.387l.267-1.22A.492.492,0,0,0,11,37.9H5.336a5.148,5.148,0,0,1,4.821-3.076,8.029,8.029,0,0,1,1.552.17.492.492,0,0,0,.574-.353l.492-1.819a.491.491,0,0,0-.382-.611A11.937,11.937,0,0,0,10.233,32a8.76,8.76,0,0,0-8.385,5.9H.492A.492.492,0,0,0,0,38.395v1.22a.492.492,0,0,0,.492.492h.884a12.169,12.169,0,0,0-.007,1.732H.492A.492.492,0,0,0,0,42.33v1.163a.492.492,0,0,0,.492.492H1.726a8.587,8.587,0,0,0,8.507,6.38,10.224,10.224,0,0,0,2.5-.319.492.492,0,0,0,.36-.572Z" transform="translate(739.35 1340.818)" fill="#b8191a"/>
  </g>
</svg>
