<!-- Generated by IcoMoon.io -->
<svg version="1.1" xmlns="http://www.w3.org/2000/svg" width="32" height="32" viewBox="0 0 32 32">
<title>icon-sidebar-cerca</title>
<path fill="#006cb4" d="M21.741 19.455h-1.205l-0.427-0.412c1.488-1.726 2.395-3.99 2.395-6.467 0-5.483-4.445-9.928-9.928-9.928s-9.928 4.445-9.928 9.928c0 5.483 4.445 9.928 9.928 9.928 2.476 0 4.741-0.906 6.479-2.406l-0.013 0.011 0.412 0.427v1.205l7.625 7.611 2.272-2.272zM12.591 19.455c-3.789-0.001-6.861-3.073-6.861-6.862s3.072-6.862 6.862-6.862 6.862 3.072 6.862 6.862v0c0 0.003 0 0.006 0 0.009 0 3.785-3.068 6.853-6.853 6.853-0.003 0-0.006 0-0.009 0h0z"></path>
</svg>
