<svg xmlns="http://www.w3.org/2000/svg" width="22.195" height="22.195" viewBox="0 0 22.195 22.195"><defs><style>.a{fill:#006cb4;}</style></defs><path class="a" d="M9.364,0h3.468a1.038,1.038,0,0,1,1.04,1.04V8.323h3.8A.865.865,0,0,1,18.285,9.8l-6.594,6.6a.84.84,0,0,1-1.183,0l-6.6-6.6a.865.865,0,0,1,.611-1.478H8.323V1.04A1.038,1.038,0,0,1,9.364,0ZM22.2,16.3v4.855a1.038,1.038,0,0,1-1.04,1.04H1.04A1.038,1.038,0,0,1,0,21.155V16.3a1.038,1.038,0,0,1,1.04-1.04H7.4l2.124,2.124a2.221,2.221,0,0,0,3.147,0L14.8,15.259h6.359A1.038,1.038,0,0,1,22.2,16.3ZM16.82,20.115a.867.867,0,1,0-.867.867A.87.87,0,0,0,16.82,20.115Zm2.774,0a.867.867,0,1,0-.867.867A.87.87,0,0,0,19.594,20.115Z"/></svg>