<!-- Generated by IcoMoon.io -->
<svg version="1.1" xmlns="http://www.w3.org/2000/svg" width="32" height="32" viewBox="0 0 32 32">
<title>icon-sidebar-adempimenti</title>
<path fill="#006cb4" stroke="#006cb4" stroke-linejoin="miter" stroke-linecap="butt" stroke-miterlimit="4" stroke-width="0.8889" d="M26.559 25.751h0c0.448-0.001 0.811-0.364 0.812-0.812v-11.376c-0.001-0.448-0.364-0.811-0.812-0.812h-21.125c-0.448 0.001-0.811 0.364-0.812 0.812v11.376c0.001 0.448 0.364 0.811 0.812 0.812h21.125zM5.434 27.376c-1.346-0.001-2.436-1.092-2.437-2.437v-11.376c0.001-1.346 1.092-2.436 2.437-2.437h21.125c0.001 0 0.003 0 0.005 0 1.346 0 2.438 1.091 2.439 2.437v11.376c-0.001 1.346-1.092 2.436-2.437 2.437h-0zM6.248 8.688v0c0 0 0 0 0 0 0-0.449 0.363-0.813 0.812-0.814h17.876c0.449 0 0.813 0.364 0.813 0.813s-0.364 0.813-0.813 0.813h-17.876c-0.448-0.001-0.811-0.364-0.812-0.812zM9.498 5.438v0c0 0 0 0 0 0 0-0.449 0.363-0.813 0.812-0.814h11.374c0.449 0 0.813 0.364 0.813 0.813s-0.364 0.813-0.813 0.813h-11.375c-0.448-0.001-0.811-0.364-0.812-0.812z"></path>
</svg>
