<svg xmlns="http://www.w3.org/2000/svg" width="32.886" height="31.676" viewBox="0 0 32.886 31.676"><defs><style>.a{fill:none;stroke:#006cb4;stroke-linecap:round;stroke-linejoin:round;stroke-width:1.5px;}</style></defs><g transform="translate(-135.505 -46.425)"><path class="a" d="M142.541,73.4l-2.981.422-3.3-23.339,23.339-3.3.925,6.533"/><g transform="translate(142.345 52.458)"><path class="a" d="M185.765,89.424a5.634,5.634,0,0,1-.15.952c-.944,3.7-6.758.594-6.758.594.849,4.188-2.791,6.522-2.791,6.522" transform="translate(-161.594 -72.885)"/><path class="a" d="M158.706,58.08l-8.867-.677-1.793,23.5L162.8,82.032s7.052-.561,9.319-6.848l1.22-15.987-10.832-.826" transform="translate(-148.046 -57.403)"/></g><g transform="translate(152.589 49.715)"><circle class="a" cx="1.489" cy="1.489" r="1.489" transform="translate(1.691 0)"/><path class="a" d="M172.547,55.641a2.006,2.006,0,1,1-2.7-1.463" transform="translate(-168.216 -53.101)"/><line class="a" x1="1.056" y2="1.563" transform="translate(0 4.462)"/></g></g></svg>