<svg xmlns="http://www.w3.org/2000/svg" width="174.186" height="52.503" viewBox="0 0 174.186 52.503"><defs><style>.a{fill:#b3b3b3;}.b{fill:#d9000d;}.c{fill:#fff;}.d{fill:#0064b3;}</style></defs><g transform="translate(0)"><g transform="translate(0)"><rect class="a" width="53.409" height="52.503"/><g transform="translate(2.813 2.811)"><rect class="b" width="17.317" height="17.316"/><rect class="b" width="17.316" height="17.316" transform="translate(30.133)"/></g><g transform="translate(2.813 32.602)"><rect class="b" width="17.317" height="17.312"/><rect class="b" width="17.316" height="17.312" transform="translate(30.133)"/></g></g><g transform="translate(57.06 2.159)"><path class="c" d="M337.8,168.954h-4.789l-6.061-10.43c-.434.021-.786.033-1.061.033-.108,0-.224,0-.348-.009s-.262-.017-.393-.024v6.511a5.317,5.317,0,0,0,.375,2.592,1.666,1.666,0,0,0,1.486.715h.68v.612h-7.633v-.612h.67a1.679,1.679,0,0,0,1.61-.912,6.463,6.463,0,0,0,.265-2.4V150.583a5.556,5.556,0,0,0-.361-2.591,1.734,1.734,0,0,0-1.514-.715h-.67v-.61h6.5a12.34,12.34,0,0,1,4.167.519,4.9,4.9,0,0,1,2.289,1.9,5.753,5.753,0,0,1,.943,3.306,5.98,5.98,0,0,1-1.076,3.564,5.818,5.818,0,0,1-3.31,2.135l3.7,6.4a10.564,10.564,0,0,0,2.164,2.93,4.728,4.728,0,0,0,2.372.918ZM325.145,157.5c.159,0,.3,0,.426.009s.223.008.3.008a4.6,4.6,0,0,0,5.073-4.891,5.319,5.319,0,0,0-1.025-3.387,3.313,3.313,0,0,0-2.735-1.305,8.155,8.155,0,0,0-2.039.356Z" transform="translate(-320.002 -146.156)"/><path class="c" d="M352.456,147.937v8.753h3.767a2.707,2.707,0,0,0,2.03-.568,4.219,4.219,0,0,0,.771-2.639h.51v7.739h-.51a11.111,11.111,0,0,0-.376-2.081,1.858,1.858,0,0,0-.771-.9,3.287,3.287,0,0,0-1.654-.329h-3.767V165.2a8.173,8.173,0,0,0,.106,1.786.989.989,0,0,0,.369.5,1.773,1.773,0,0,0,.979.188h3a6.709,6.709,0,0,0,2.191-.259,3.211,3.211,0,0,0,1.306-1.023,12.9,12.9,0,0,0,1.668-3.042h.561l-1.542,5.6H347.366v-.612h.625a2.1,2.1,0,0,0,1.2-.375,1.307,1.307,0,0,0,.575-.785,10.051,10.051,0,0,0,.145-2.148V150.583a5.924,5.924,0,0,0-.344-2.641,1.781,1.781,0,0,0-1.576-.665h-.625v-.61H361.06l.2,4.884H360.7a8.935,8.935,0,0,0-.608-2.382,2.259,2.259,0,0,0-.98-.989,4.822,4.822,0,0,0-1.833-.242Z" transform="translate(-329.257 -146.156)"/><path class="c" d="M388.432,145.9l.41,7.024h-.51a10.162,10.162,0,0,0-1.8-3.94,4.992,4.992,0,0,0-4.047-1.915,5.564,5.564,0,0,0-5.155,3.358,14.47,14.47,0,0,0-1.472,6.748,16.405,16.405,0,0,0,.986,5.8,8.424,8.424,0,0,0,2.581,3.84,5.368,5.368,0,0,0,3.289,1.22,5.959,5.959,0,0,0,1.9-.309,6.786,6.786,0,0,0,1.774-.909v-6.365a7.622,7.622,0,0,0-.2-2.229,1.623,1.623,0,0,0-.63-.8,2.953,2.953,0,0,0-1.5-.276v-.61h6.918v.61h-.331a1.426,1.426,0,0,0-1.432.871,7.1,7.1,0,0,0-.27,2.437v6.79a11.81,11.81,0,0,1-2.975,1.488,10.629,10.629,0,0,1-3.269.474,8.77,8.77,0,0,1-7.838-4.141,12.95,12.95,0,0,1-2-7.168,14.412,14.412,0,0,1,1.135-5.636,11.3,11.3,0,0,1,3.675-4.932,7.6,7.6,0,0,1,4.613-1.429,7.257,7.257,0,0,1,1.767.2,13.792,13.792,0,0,1,2.249.877,3.164,3.164,0,0,0,.987.35.519.519,0,0,0,.427-.291,2.617,2.617,0,0,0,.216-1.135Z" transform="translate(-337.894 -145.895)"/><path class="c" d="M409.443,168.343v.612h-7.635v-.612h.641a1.725,1.725,0,0,0,1.593-.8,6.105,6.105,0,0,0,.311-2.511V150.583a9.388,9.388,0,0,0-.164-2.216,1.414,1.414,0,0,0-.54-.7,2.108,2.108,0,0,0-1.2-.391h-.641v-.61h7.635v.61h-.635a1.724,1.724,0,0,0-1.587.8,5.861,5.861,0,0,0-.323,2.508v14.452a9.37,9.37,0,0,0,.163,2.219,1.355,1.355,0,0,0,.553.7,2.008,2.008,0,0,0,1.193.391Z" transform="translate(-347.703 -146.156)"/><path class="c" d="M424.768,145.9a7.461,7.461,0,0,1,6.023,3.3,13.055,13.055,0,0,1,2.547,8.226,13.47,13.47,0,0,1-2.569,8.433,7.482,7.482,0,0,1-12.423.081,13.491,13.491,0,0,1-2.514-8.463,12.769,12.769,0,0,1,2.9-8.665A7.725,7.725,0,0,1,424.768,145.9Zm-.265,1.17a4.42,4.42,0,0,0-3.852,2.223q-1.815,2.763-1.815,8.1,0,5.46,1.883,8.407a4.346,4.346,0,0,0,3.8,2.239,4.873,4.873,0,0,0,4.17-2.455q1.646-2.45,1.644-7.732,0-5.729-1.8-8.542A4.562,4.562,0,0,0,424.5,147.065Z" transform="translate(-352.454 -145.895)"/><path class="c" d="M443.315,146.666h4.85l10.9,16.578v-12.71a5.426,5.426,0,0,0-.366-2.568,1.8,1.8,0,0,0-1.562-.69h-.616v-.61h6.259v.61h-.632a1.716,1.716,0,0,0-1.63.856,6.232,6.232,0,0,0-.284,2.4v18.781h-.479L447.968,151.35v13.739a5.68,5.68,0,0,0,.347,2.566,1.834,1.834,0,0,0,1.567.688h.628v.612h-6.256v-.612h.616a1.719,1.719,0,0,0,1.644-.854,6.228,6.228,0,0,0,.284-2.4V149.566a9.275,9.275,0,0,0-1.174-1.478,4,4,0,0,0-1.174-.665,3.289,3.289,0,0,0-1.135-.147Z" transform="translate(-361.767 -146.156)"/><path class="c" d="M479.125,147.937v8.753h3.767a2.7,2.7,0,0,0,2.027-.568,4.193,4.193,0,0,0,.772-2.639h.506v7.739h-.506a10.614,10.614,0,0,0-.38-2.081,1.829,1.829,0,0,0-.767-.9,3.283,3.283,0,0,0-1.653-.329h-3.767V165.2a8.236,8.236,0,0,0,.106,1.786,1,1,0,0,0,.366.5,1.784,1.784,0,0,0,.98.188h3.006a6.7,6.7,0,0,0,2.186-.259,3.214,3.214,0,0,0,1.309-1.023,13.051,13.051,0,0,0,1.665-3.042h.559l-1.54,5.6H474.037v-.612h.624a2.1,2.1,0,0,0,1.2-.375,1.28,1.28,0,0,0,.574-.785,9.673,9.673,0,0,0,.15-2.148V150.583a5.95,5.95,0,0,0-.346-2.641,1.78,1.78,0,0,0-1.574-.665h-.624v-.61h13.686l.207,4.884h-.561a8.9,8.9,0,0,0-.612-2.382,2.244,2.244,0,0,0-.979-.989,4.794,4.794,0,0,0-1.833-.242Z" transform="translate(-372.176 -146.156)"/><path class="c" d="M324.353,199.238v5.634a4.749,4.749,0,0,0,.323,2.272,1.444,1.444,0,0,0,1.289.631h.577v.506h-6.566v-.506h.567a1.463,1.463,0,0,0,1.4-.8,5.878,5.878,0,0,0,.227-2.1V192.4a4.919,4.919,0,0,0-.312-2.273,1.5,1.5,0,0,0-1.31-.627h-.567V189h5.6a8.1,8.1,0,0,1,3.248.533,4.647,4.647,0,0,1,2,1.794,5.435,5.435,0,0,1,.807,3,5.8,5.8,0,0,1-1.227,3.833,4.278,4.278,0,0,1-3.48,1.479,7.978,7.978,0,0,1-1.193-.1A12.675,12.675,0,0,1,324.353,199.238Zm0-.807c.4.1.749.164,1.051.214a5.186,5.186,0,0,0,.788.069,2.464,2.464,0,0,0,2-1.137,4.884,4.884,0,0,0,.841-2.959,6.52,6.52,0,0,0-.4-2.32,3.328,3.328,0,0,0-1.146-1.6,2.767,2.767,0,0,0-1.667-.534,5.332,5.332,0,0,0-1.465.269Z" transform="translate(-319.976 -160.499)"/><path class="c" d="M346.344,207.776v.506h-6.565v-.506h.549a1.487,1.487,0,0,0,1.374-.7,5.491,5.491,0,0,0,.267-2.2V192.4a8.235,8.235,0,0,0-.144-1.941,1.2,1.2,0,0,0-.464-.615,1.806,1.806,0,0,0-1.033-.344h-.549V189h6.565v.507H345.8a1.462,1.462,0,0,0-1.361.7,5.2,5.2,0,0,0-.28,2.2v12.468a8.615,8.615,0,0,0,.136,1.945,1.218,1.218,0,0,0,.479.615,1.732,1.732,0,0,0,1.026.344Z" transform="translate(-326.686 -160.499)"/><path class="c" d="M355.8,190.117v7.529H359a2.394,2.394,0,0,0,1.771-.486,3.545,3.545,0,0,0,.677-2.261h.407v6.666h-.407a8.946,8.946,0,0,0-.332-1.794,1.553,1.553,0,0,0-.67-.774,2.9,2.9,0,0,0-1.446-.284h-3.2v6.3a7.461,7.461,0,0,0,.089,1.545.883.883,0,0,0,.317.438,1.6,1.6,0,0,0,.844.16h2.594a5.757,5.757,0,0,0,1.886-.222,2.736,2.736,0,0,0,1.129-.88,11.137,11.137,0,0,0,1.435-2.613h.5l-1.328,4.836h-11.85v-.506h.537a1.794,1.794,0,0,0,1.03-.332,1.138,1.138,0,0,0,.5-.69,8.794,8.794,0,0,0,.126-1.882V192.4a5.25,5.25,0,0,0-.3-2.317,1.516,1.516,0,0,0-1.351-.582h-.537V189h11.809l.15,4.221h-.508a7.793,7.793,0,0,0-.524-2.042,1.932,1.932,0,0,0-.841-.85,4.094,4.094,0,0,0-1.576-.208Z" transform="translate(-330.631 -160.499)"/><path class="c" d="M381.85,208.283,375.9,192.055v12.87a5.059,5.059,0,0,0,.3,2.243,1.536,1.536,0,0,0,1.347.609h.542v.506h-5.392v-.506h.543a1.473,1.473,0,0,0,1.4-.748,5.568,5.568,0,0,0,.243-2.1V192.354a5.5,5.5,0,0,0-.229-1.871,1.445,1.445,0,0,0-.586-.7,2.59,2.59,0,0,0-1.372-.282V189h4.484l5.5,14.98,5.5-14.98h4.368v.507h-.54a1.459,1.459,0,0,0-1.391.748,5.288,5.288,0,0,0-.255,2.1v12.571a4.668,4.668,0,0,0,.323,2.243,1.486,1.486,0,0,0,1.323.609h.54v.506h-6.563v-.506h.54a1.442,1.442,0,0,0,1.39-.748,5.268,5.268,0,0,0,.258-2.1v-12.87L382.2,208.283Z" transform="translate(-337.837 -160.499)"/><path class="c" d="M412.436,188.383a6.414,6.414,0,0,1,5.186,2.84,11.286,11.286,0,0,1,2.192,7.094,11.62,11.62,0,0,1-2.213,7.271,6.427,6.427,0,0,1-10.689.073,11.654,11.654,0,0,1-2.16-7.3,11.016,11.016,0,0,1,2.492-7.47A6.645,6.645,0,0,1,412.436,188.383Zm-.222,1.016a3.785,3.785,0,0,0-3.305,1.913q-1.564,2.38-1.562,6.979,0,4.7,1.617,7.242a3.725,3.725,0,0,0,3.259,1.931,4.184,4.184,0,0,0,3.584-2.112q1.409-2.115,1.41-6.666,0-4.93-1.543-7.358A3.913,3.913,0,0,0,412.214,189.4Z" transform="translate(-348.701 -160.291)"/><path class="c" d="M428.391,189h4.155l9.5,14.391V192.354a4.823,4.823,0,0,0-.315-2.245,1.541,1.541,0,0,0-1.347-.6h-.528V189h5.395v.507H444.7a1.47,1.47,0,0,0-1.4.748,5.494,5.494,0,0,0-.243,2.1V208.6h-.417l-10.222-15.512v11.839a4.953,4.953,0,0,0,.3,2.243,1.549,1.549,0,0,0,1.344.609h.543v.506h-5.394v-.506h.53a1.487,1.487,0,0,0,1.413-.748,5.554,5.554,0,0,0,.245-2.1V191.542a8.256,8.256,0,0,0-1.015-1.318,3.4,3.4,0,0,0-1.018-.588,2.776,2.776,0,0,0-.981-.132Z" transform="translate(-356.71 -160.499)"/><path class="c" d="M468.122,189l.151,4.532h-.427a6.844,6.844,0,0,0-.339-1.706,2.391,2.391,0,0,0-2.462-1.609h-2.167v14.71a4.973,4.973,0,0,0,.3,2.243,1.549,1.549,0,0,0,1.344.609h.543v.506H458.5v-.506h.54a1.476,1.476,0,0,0,1.4-.748,5.554,5.554,0,0,0,.245-2.1v-14.71h-1.855a4.183,4.183,0,0,0-1.537.2,2.269,2.269,0,0,0-1.022,1.037,5.048,5.048,0,0,0-.506,2.077h-.427L455.5,189Z" transform="translate(-365.843 -160.499)"/><path class="c" d="M480.912,190.117v7.529h3.206a2.4,2.4,0,0,0,1.771-.486,3.547,3.547,0,0,0,.672-2.261h.411v6.666h-.411a9.415,9.415,0,0,0-.33-1.794,1.579,1.579,0,0,0-.67-.774,2.9,2.9,0,0,0-1.443-.284h-3.206v6.3a7.638,7.638,0,0,0,.089,1.545.9.9,0,0,0,.319.438,1.594,1.594,0,0,0,.846.16h2.591a5.786,5.786,0,0,0,1.887-.222,2.737,2.737,0,0,0,1.128-.88,11.183,11.183,0,0,0,1.436-2.613h.508l-1.333,4.836H476.536v-.506h.537a1.813,1.813,0,0,0,1.032-.332,1.139,1.139,0,0,0,.491-.69,8.559,8.559,0,0,0,.127-1.882V192.4a5.259,5.259,0,0,0-.3-2.317,1.524,1.524,0,0,0-1.354-.582h-.537V189h11.807l.152,4.221h-.511a7.755,7.755,0,0,0-.52-2.042,1.955,1.955,0,0,0-.84-.85,4.108,4.108,0,0,0-1.576-.208Z" transform="translate(-373.023 -160.499)"/></g><path class="d" d="M251.066,156.791l1.89-5.691h26.659l1.864,5.689H275.76l.717-2.392h-8.306l.867,2.382h-5.633l.825-2.3h-8.281l.8,2.307Z" transform="translate(-239.567 -145.5)"/></g></svg>